<mxfile host="app.diagrams.net" modified="2024-01-12T08:58:42.026Z" agent="Mozilla/5.0 (Windows NT 10.0; Win64; x64) AppleWebKit/537.36 (KHTML, like Gecko) Chrome/120.0.0.0 Safari/537.36" etag="EeHe2t3hbQu5CqLg4sRo" version="22.1.18" type="device">
  <diagram name="Page-1" id="rjdd41iQG79xflffnoBT">
    <mxGraphModel dx="1674" dy="746" grid="1" gridSize="10" guides="1" tooltips="1" connect="1" arrows="1" fold="1" page="1" pageScale="1" pageWidth="827" pageHeight="1169" math="0" shadow="0">
      <root>
        <mxCell id="0" />
        <mxCell id="1" parent="0" />
        <mxCell id="01tOEyRLaWQHP22BRxno-17" style="edgeStyle=orthogonalEdgeStyle;rounded=0;orthogonalLoop=1;jettySize=auto;html=1;exitX=1;exitY=0.5;exitDx=0;exitDy=0;entryX=0;entryY=0.5;entryDx=0;entryDy=0;" edge="1" parent="1" source="01tOEyRLaWQHP22BRxno-1" target="01tOEyRLaWQHP22BRxno-3">
          <mxGeometry relative="1" as="geometry" />
        </mxCell>
        <mxCell id="01tOEyRLaWQHP22BRxno-1" value="Script de la base de donnée" style="ellipse;whiteSpace=wrap;html=1;" vertex="1" parent="1">
          <mxGeometry x="40" y="130" width="130" height="90" as="geometry" />
        </mxCell>
        <mxCell id="01tOEyRLaWQHP22BRxno-18" style="edgeStyle=orthogonalEdgeStyle;rounded=0;orthogonalLoop=1;jettySize=auto;html=1;exitX=1;exitY=0.5;exitDx=0;exitDy=0;entryX=0;entryY=0.5;entryDx=0;entryDy=0;" edge="1" parent="1" source="01tOEyRLaWQHP22BRxno-3" target="01tOEyRLaWQHP22BRxno-5">
          <mxGeometry relative="1" as="geometry" />
        </mxCell>
        <mxCell id="01tOEyRLaWQHP22BRxno-3" value="Création des entités Java&amp;nbsp;" style="ellipse;whiteSpace=wrap;html=1;" vertex="1" parent="1">
          <mxGeometry x="220" y="130" width="130" height="90" as="geometry" />
        </mxCell>
        <mxCell id="01tOEyRLaWQHP22BRxno-19" style="edgeStyle=orthogonalEdgeStyle;rounded=0;orthogonalLoop=1;jettySize=auto;html=1;exitX=1;exitY=0.25;exitDx=0;exitDy=0;entryX=0;entryY=0.5;entryDx=0;entryDy=0;" edge="1" parent="1" source="01tOEyRLaWQHP22BRxno-5" target="01tOEyRLaWQHP22BRxno-6">
          <mxGeometry relative="1" as="geometry" />
        </mxCell>
        <mxCell id="01tOEyRLaWQHP22BRxno-21" style="edgeStyle=orthogonalEdgeStyle;rounded=0;orthogonalLoop=1;jettySize=auto;html=1;exitX=1;exitY=0.75;exitDx=0;exitDy=0;entryX=0;entryY=0.5;entryDx=0;entryDy=0;" edge="1" parent="1" source="01tOEyRLaWQHP22BRxno-5" target="01tOEyRLaWQHP22BRxno-8">
          <mxGeometry relative="1" as="geometry" />
        </mxCell>
        <mxCell id="01tOEyRLaWQHP22BRxno-22" style="edgeStyle=orthogonalEdgeStyle;rounded=0;orthogonalLoop=1;jettySize=auto;html=1;exitX=1;exitY=0.5;exitDx=0;exitDy=0;entryX=0;entryY=0.5;entryDx=0;entryDy=0;" edge="1" parent="1" source="01tOEyRLaWQHP22BRxno-5" target="01tOEyRLaWQHP22BRxno-7">
          <mxGeometry relative="1" as="geometry" />
        </mxCell>
        <mxCell id="01tOEyRLaWQHP22BRxno-5" value="Services" style="shape=hexagon;perimeter=hexagonPerimeter2;whiteSpace=wrap;html=1;fixedSize=1;" vertex="1" parent="1">
          <mxGeometry x="390" y="135" width="90" height="80" as="geometry" />
        </mxCell>
        <mxCell id="01tOEyRLaWQHP22BRxno-23" style="edgeStyle=orthogonalEdgeStyle;rounded=0;orthogonalLoop=1;jettySize=auto;html=1;exitX=1;exitY=0.5;exitDx=0;exitDy=0;entryX=0;entryY=0.5;entryDx=0;entryDy=0;" edge="1" parent="1" source="01tOEyRLaWQHP22BRxno-6" target="01tOEyRLaWQHP22BRxno-9">
          <mxGeometry relative="1" as="geometry" />
        </mxCell>
        <mxCell id="01tOEyRLaWQHP22BRxno-6" value="Gestion Stockage" style="ellipse;whiteSpace=wrap;html=1;" vertex="1" parent="1">
          <mxGeometry x="550" y="20" width="130" height="90" as="geometry" />
        </mxCell>
        <mxCell id="01tOEyRLaWQHP22BRxno-24" style="edgeStyle=orthogonalEdgeStyle;rounded=0;orthogonalLoop=1;jettySize=auto;html=1;exitX=1;exitY=0.5;exitDx=0;exitDy=0;entryX=0;entryY=0.5;entryDx=0;entryDy=0;" edge="1" parent="1" source="01tOEyRLaWQHP22BRxno-7" target="01tOEyRLaWQHP22BRxno-9">
          <mxGeometry relative="1" as="geometry">
            <mxPoint x="740" y="120" as="targetPoint" />
            <Array as="points">
              <mxPoint x="720" y="175" />
              <mxPoint x="720" y="115" />
            </Array>
          </mxGeometry>
        </mxCell>
        <mxCell id="01tOEyRLaWQHP22BRxno-7" value="Notificateur et envoi de nouveau contenu" style="ellipse;whiteSpace=wrap;html=1;" vertex="1" parent="1">
          <mxGeometry x="550" y="130" width="130" height="90" as="geometry" />
        </mxCell>
        <mxCell id="01tOEyRLaWQHP22BRxno-25" style="edgeStyle=orthogonalEdgeStyle;rounded=0;orthogonalLoop=1;jettySize=auto;html=1;exitX=1;exitY=0.5;exitDx=0;exitDy=0;entryX=0;entryY=0.5;entryDx=0;entryDy=0;" edge="1" parent="1" source="01tOEyRLaWQHP22BRxno-8" target="01tOEyRLaWQHP22BRxno-16">
          <mxGeometry relative="1" as="geometry" />
        </mxCell>
        <mxCell id="01tOEyRLaWQHP22BRxno-8" value="CRUD entity" style="ellipse;whiteSpace=wrap;html=1;" vertex="1" parent="1">
          <mxGeometry x="550" y="240" width="130" height="90" as="geometry" />
        </mxCell>
        <mxCell id="01tOEyRLaWQHP22BRxno-26" style="edgeStyle=orthogonalEdgeStyle;rounded=0;orthogonalLoop=1;jettySize=auto;html=1;exitX=1;exitY=0.5;exitDx=0;exitDy=0;" edge="1" parent="1" source="01tOEyRLaWQHP22BRxno-9">
          <mxGeometry relative="1" as="geometry">
            <mxPoint x="950" y="220" as="targetPoint" />
            <Array as="points">
              <mxPoint x="920" y="115" />
            </Array>
          </mxGeometry>
        </mxCell>
        <mxCell id="01tOEyRLaWQHP22BRxno-9" value="JMS &quot;Ready to send&quot;" style="ellipse;whiteSpace=wrap;html=1;" vertex="1" parent="1">
          <mxGeometry x="760" y="70" width="130" height="90" as="geometry" />
        </mxCell>
        <mxCell id="01tOEyRLaWQHP22BRxno-33" style="edgeStyle=orthogonalEdgeStyle;rounded=0;orthogonalLoop=1;jettySize=auto;html=1;exitX=1;exitY=0.5;exitDx=0;exitDy=0;entryX=0;entryY=0.5;entryDx=0;entryDy=0;" edge="1" parent="1" source="01tOEyRLaWQHP22BRxno-10" target="01tOEyRLaWQHP22BRxno-11">
          <mxGeometry relative="1" as="geometry" />
        </mxCell>
        <mxCell id="01tOEyRLaWQHP22BRxno-10" value="Faire liaison des endpoints Front-Backend" style="ellipse;whiteSpace=wrap;html=1;" vertex="1" parent="1">
          <mxGeometry x="950" y="390" width="130" height="90" as="geometry" />
        </mxCell>
        <mxCell id="01tOEyRLaWQHP22BRxno-11" value="Test système" style="ellipse;whiteSpace=wrap;html=1;" vertex="1" parent="1">
          <mxGeometry x="1160" y="390" width="130" height="90" as="geometry" />
        </mxCell>
        <mxCell id="01tOEyRLaWQHP22BRxno-27" style="edgeStyle=orthogonalEdgeStyle;rounded=0;orthogonalLoop=1;jettySize=auto;html=1;exitX=1;exitY=0.5;exitDx=0;exitDy=0;" edge="1" parent="1" source="01tOEyRLaWQHP22BRxno-12" target="01tOEyRLaWQHP22BRxno-13">
          <mxGeometry relative="1" as="geometry" />
        </mxCell>
        <mxCell id="01tOEyRLaWQHP22BRxno-28" style="edgeStyle=orthogonalEdgeStyle;rounded=0;orthogonalLoop=1;jettySize=auto;html=1;exitX=1;exitY=0.5;exitDx=0;exitDy=0;entryX=0;entryY=0.5;entryDx=0;entryDy=0;" edge="1" parent="1" source="01tOEyRLaWQHP22BRxno-12" target="01tOEyRLaWQHP22BRxno-14">
          <mxGeometry relative="1" as="geometry" />
        </mxCell>
        <mxCell id="01tOEyRLaWQHP22BRxno-12" value="Comprendre Tauri et créer une app simple" style="ellipse;whiteSpace=wrap;html=1;" vertex="1" parent="1">
          <mxGeometry x="30" y="390" width="130" height="90" as="geometry" />
        </mxCell>
        <mxCell id="01tOEyRLaWQHP22BRxno-30" style="edgeStyle=orthogonalEdgeStyle;rounded=0;orthogonalLoop=1;jettySize=auto;html=1;exitX=1;exitY=0.5;exitDx=0;exitDy=0;" edge="1" parent="1" source="01tOEyRLaWQHP22BRxno-13">
          <mxGeometry relative="1" as="geometry">
            <mxPoint x="550" y="435" as="targetPoint" />
          </mxGeometry>
        </mxCell>
        <mxCell id="01tOEyRLaWQHP22BRxno-13" value="Frontend en Rust" style="ellipse;whiteSpace=wrap;html=1;" vertex="1" parent="1">
          <mxGeometry x="210" y="390" width="130" height="90" as="geometry" />
        </mxCell>
        <mxCell id="01tOEyRLaWQHP22BRxno-29" style="edgeStyle=orthogonalEdgeStyle;rounded=0;orthogonalLoop=1;jettySize=auto;html=1;exitX=1;exitY=0.5;exitDx=0;exitDy=0;entryX=0;entryY=0.5;entryDx=0;entryDy=0;" edge="1" parent="1" source="01tOEyRLaWQHP22BRxno-14" target="01tOEyRLaWQHP22BRxno-15">
          <mxGeometry relative="1" as="geometry" />
        </mxCell>
        <mxCell id="01tOEyRLaWQHP22BRxno-14" value="HTML/CSS" style="ellipse;whiteSpace=wrap;html=1;" vertex="1" parent="1">
          <mxGeometry x="210" y="510" width="130" height="90" as="geometry" />
        </mxCell>
        <mxCell id="01tOEyRLaWQHP22BRxno-32" style="edgeStyle=orthogonalEdgeStyle;rounded=0;orthogonalLoop=1;jettySize=auto;html=1;exitX=1;exitY=0.5;exitDx=0;exitDy=0;entryX=0;entryY=0.5;entryDx=0;entryDy=0;" edge="1" parent="1" source="01tOEyRLaWQHP22BRxno-15" target="01tOEyRLaWQHP22BRxno-10">
          <mxGeometry relative="1" as="geometry" />
        </mxCell>
        <mxCell id="01tOEyRLaWQHP22BRxno-15" value="Containeriser Frontend dans docker" style="ellipse;whiteSpace=wrap;html=1;" vertex="1" parent="1">
          <mxGeometry x="550" y="390" width="130" height="90" as="geometry" />
        </mxCell>
        <mxCell id="01tOEyRLaWQHP22BRxno-31" style="edgeStyle=orthogonalEdgeStyle;rounded=0;orthogonalLoop=1;jettySize=auto;html=1;exitX=0.5;exitY=1;exitDx=0;exitDy=0;entryX=0.5;entryY=0;entryDx=0;entryDy=0;" edge="1" parent="1" source="01tOEyRLaWQHP22BRxno-16" target="01tOEyRLaWQHP22BRxno-10">
          <mxGeometry relative="1" as="geometry" />
        </mxCell>
        <mxCell id="01tOEyRLaWQHP22BRxno-16" value="Containeriser Backend dans docker" style="ellipse;whiteSpace=wrap;html=1;" vertex="1" parent="1">
          <mxGeometry x="950" y="175" width="130" height="90" as="geometry" />
        </mxCell>
      </root>
    </mxGraphModel>
  </diagram>
</mxfile>
